<?xml version="1.0" standalone="no"?>
<!DOCTYPE svg PUBLIC "-//W3C//DTD SVG 20010904//EN" "http://www.w3.org/TR/2001/REC-SVG-20010904/DTD/svg10.dtd">
<!-- Created using Krita: https://krita.org by PJ Pollina -->
<svg xmlns="http://www.w3.org/2000/svg" 
    xmlns:xlink="http://www.w3.org/1999/xlink"
    xmlns:krita="http://krita.org/namespaces/svg/krita"
    xmlns:sodipodi="http://sodipodi.sourceforge.net/DTD/sodipodi-0.dtd"
    width="250pt"
    height="250pt"
    viewBox="0 0 250 250">
<defs/>
<g id="group0" transform="matrix(0.1 0 0 -0.1 0 255)" fill="none"/><path id="shape0" transform="translate(42.6535977709236, 3.93732767870114)" fill="#ff8081" fill-rule="evenodd" stroke="#ff8081" stroke-width="5" stroke-linecap="square" stroke-linejoin="bevel" d="M64.4883 0.362432C57.1119 2.09983 47.611 9.68374 42.0902 15.3477C36.8483 20.7257 32.2632 30.2791 28.4861 36.9252C26.0583 41.197 24.1512 47.833 21.0701 51.472C16.6002 56.7516 6.48363 60.2772 2.02931 65.5648C1.20186 66.547 -0.292099 68.7403 0.0500692 69.4951C1.21713 72.0696 10.9127 71.0006 14.5812 73.2531C16.8313 74.6347 20.0888 77.799 20.6192 80.1586C22.7386 89.5869 11.1373 104.723 10.6227 115.422C10.5423 117.095 10.7073 119.99 11.7001 121.063C14.3349 123.909 22.3047 123.213 26.4066 125.099C27.5205 125.611 29.3958 126.451 29.839 127.416C30.7211 129.337 29.9855 133.554 28.8869 135.543C26.8999 139.141 18.0684 141.483 17.4123 144.813C17.0651 146.575 21.1019 149.557 21.1704 151.64C21.3148 156.034 16.0305 161.948 14.2555 166.531C12.2187 171.791 7.97708 179.403 8.61164 184.507C9.15694 188.892 13.4552 195.692 17.0969 198.295C19.6243 200.102 24.9953 201.31 28.0571 200.77C31.2639 200.204 34.8326 194.705 37.9566 194.406C41.9998 194.019 50.2297 196.944 52.0987 200.063C53.6701 202.686 51.8936 209.24 50.6845 212.791C49.5911 216.002 45.0093 219.563 44.6741 222.69C44.3601 225.619 46.1461 230.861 48.2096 232.943C50.4223 235.176 55.8252 236.638 59.1698 236.833C66.0073 237.23 75.3235 232.702 82.3464 231.529C88.2745 230.54 96.4888 230.777 102.303 229.408C107.878 228.095 116.482 226.346 120.335 222.69C124.963 218.298 127.674 208.095 129.527 201.477C130.356 198.515 129.973 194.118 130.941 191.224C132.911 185.338 139.817 178.751 141.194 172.839C142.561 166.974 141.638 157.938 140.133 151.98C138.414 145.167 132.956 136.883 129.88 130.413C129.88 130.413 129.88 130.413 129.88 130.413C132.638 130.095 136.722 130.502 139.073 129.352C142.023 127.909 145.905 124.046 147.205 121.063C148.93 117.102 148.095 110.268 147.912 105.664C147.43 93.5923 144.071 77.6231 142.846 65.5627C142.55 62.6449 141.122 58.2598 142.096 55.8127C143.878 51.3391 155.556 47.1504 155.346 43.8127C155.275 42.6731 151.968 41.119 150.346 40.3127C143.647 36.9807 132.621 36.4002 126.346 32.5627C120.277 28.8507 114.987 19.4746 109.096 15.3127C101.941 10.2571 90.7705 5.01871 82.3464 2.56267C77.2313 1.07137 69.4168 -0.798419 64.4883 0.362432Z" sodipodi:nodetypes="csssssssssssssssssssssssssssssssssssssssssscc"/><path id="shape1" transform="translate(133.690249115493, 236.880764854049)" fill="#ff8081" fill-rule="evenodd" stroke="#ff8081" stroke-width="5" stroke-linecap="square" stroke-linejoin="bevel" d="M0.660037 0C0.474422 1.16673 -0.167618 2.79791 0.0413191 3.88909C0.417716 5.85483 3.24136 10.1304 3.66524 9.98789C3.94694 9.89315 2.85062 6.61239 3.13491 5.3033C3.50785 3.586 5.08469 1.33471 6.31689 0" sodipodi:nodetypes="csssc"/><path id="shape2" transform="translate(151.742051439181, 187.888850503699)" fill="#ff8081" fill-rule="evenodd" stroke="#ff8081" stroke-width="5" stroke-linecap="square" stroke-linejoin="bevel" d="M0.00795957 45.4564C0.509697 49.0611 16.9444 53.3731 24.5043 54.2952C28.477 54.7798 34.5879 54.5088 38.1161 52.881C43.4029 50.4418 50.738 43.9361 52.9654 38.7389C54.4631 35.2442 54.0708 28.7667 52.9654 24.9503C51.9593 21.4769 48.4598 17.3885 46.258 14.3437C44.0091 11.2338 40.9516 6.9736 38.1161 4.4442C36.5324 3.03147 34.0811 1.13847 32.1057 0.555101C30.3497 0.0365165 26.8973 -0.378091 25.7418 0.555101C21.4731 4.00225 18.0186 19.8185 20.792 23.5361C21.8797 24.9941 27.728 23.0683 29.9844 24.2432C31.4398 25.001 33.1919 27.2579 33.758 28.8394C34.1954 30.0617 34.2973 32.3167 33.758 33.4356C33.1919 34.61 31.2468 35.7932 29.9844 36.4408C27.7731 37.5751 24.2644 38.8253 21.8527 38.7389C19.331 38.6485 15.8668 35.4113 13.5442 35.7337C9.16287 36.3418 -0.313135 43.1495 0.00795957 45.4564Z" sodipodi:nodetypes="csssssssssssssscc"/>
</svg>
